<?xml version="1.0" encoding="UTF-8"?>
<svg version="1.1" xmlns="http://www.w3.org/2000/svg" width="2559" height="581">
<path d="M0 0 C1.54494141 0.928125 1.54494141 0.928125 3.12109375 1.875 C4.78006766 2.87664462 6.43471896 3.88554015 8.08203125 4.90625 C10.10873149 6.14471902 10.10873149 6.14471902 13 7 C13.12117188 6.27683594 13.24234375 5.55367187 13.3671875 4.80859375 C15.16082628 -3.15206234 19.17325776 -9.54171936 26 -14 C26.91652344 -14.61875 26.91652344 -14.61875 27.8515625 -15.25 C35.98268234 -19.77077705 46.65317275 -19.30074161 55.484375 -17.15234375 C64.11515505 -13.92127762 70.8299229 -8.28218742 75 0 C75.38526917 3.38026428 75.38526917 3.38026428 75.40063477 7.30493164 C75.41116709 8.3865956 75.41116709 8.3865956 75.42191219 9.49011135 C75.44201733 11.88024968 75.44150964 14.26994061 75.44140625 16.66015625 C75.4525764 18.34721914 75.46526067 20.03427261 75.47937012 21.72131348 C75.50713003 25.30372406 75.52670127 28.88604157 75.5395813 32.46853638 C75.57442048 41.83345395 75.66204819 51.19795575 75.75 60.5625 C75.75819323 61.48091738 75.76638645 62.39933475 75.77482796 63.34558296 C75.87928249 74.74429562 76.07883497 86.11179944 76.76737976 97.49269104 C77.74066107 113.84598026 78.15945375 130.18628866 78.19921875 146.56640625 C78.20599322 148.53164673 78.21276813 150.49688721 78.21954346 152.46212769 C78.23473972 157.51192648 78.2418251 162.56170424 78.24631882 167.61152267 C78.24996102 170.59308864 78.25726017 173.57462613 78.26541138 176.55618286 C78.2772893 181.31589743 78.2773765 186.07548289 78.26870155 190.83520317 C78.2666901 192.60299037 78.26776031 194.37078446 78.27229881 196.13856697 C78.29114569 205.07099671 78.07314999 213.90849391 77.14746094 222.79833984 C77.07525455 223.52595835 77.00304817 224.25357685 76.92865372 225.0032444 C75.91547409 233.67803989 72.55467697 240.93781061 66.25 247 C56.96755657 254.1363146 47.35322901 255.12955984 36 254 C29.34967413 252.46065279 23.40289834 249.28795933 19 244 C16.29688907 239.56268543 14.10352068 235.09497848 13 230 C8.98965096 230.56273104 6.5030074 231.77036182 3.1875 234.0625 C-17.28243536 247.44351815 -39.93507588 254.61623575 -64.42724609 254.39111328 C-66.50034288 254.37499733 -68.57149168 254.39110168 -70.64453125 254.41015625 C-109.056249 254.4690005 -142.76301069 236.15816983 -169.40234375 209.60546875 C-195.12356858 182.34729903 -203.79600801 146.33132996 -203.09326172 109.78271484 C-202.90205863 104.07765516 -202.15055407 98.5958766 -201 93 C-200.87109375 92.34515625 -200.7421875 91.6903125 -200.609375 91.015625 C-193.37665982 54.85204912 -171.75390766 22.71879221 -141.23168945 2.02685547 C-128.81517358 -6.18908406 -116.33981063 -11.95419004 -102 -16 C-101.27393555 -16.21172852 -100.54787109 -16.42345703 -99.79980469 -16.64160156 C-65.28251601 -26.38675107 -30.01137067 -18.05145512 0 0 Z " fill="#000000" transform="translate(2213,184)"/>
<path d="M0 0 C1.24652344 -0.01224609 2.49304688 -0.02449219 3.77734375 -0.03710938 C30.99015926 -0.07976269 56.25126319 10.49444739 78.75 25.1875 C78.95625 24.3625 79.1625 23.5375 79.375 22.6875 C82.92257111 13.65731898 90.37730282 6.21823479 98.9375 1.75 C106.26768363 -1.1694352 114.52460901 -0.90424111 121.9375 1.625 C129.59055297 5.13316947 136.91642251 11.67368811 140.75 19.1875 C143.41297851 26.36511868 144.37396814 33.33360473 144.875 40.9375 C144.98521484 42.41089844 144.98521484 42.41089844 145.09765625 43.9140625 C145.24385714 45.88905699 145.38426242 47.86449076 145.51831055 49.84034729 C145.66797336 52.00248401 145.82508146 54.16412412 145.99121094 56.32505798 C146.6534528 65.03183941 147.05669755 73.72937839 147.3046875 82.45703125 C147.32562344 83.17362223 147.34655937 83.8902132 147.36812973 84.62851906 C147.87112414 102.25415527 147.90302249 119.87939103 147.88037109 137.51098633 C147.87466138 141.98760234 147.87807332 146.464159 147.88381672 150.94077301 C147.98958727 248.55945266 147.98958727 248.55945266 132.75 264.1875 C124.0699694 271.24947611 115.85235494 273.22058132 104.75 272.1875 C94.67055655 269.82667664 86.57094988 262.57426331 80.75 254.1875 C79.375 250.75 79.375 250.75 78.75 248.1875 C77.49893427 248.87305875 76.24925101 249.56113996 75 250.25 C73.75863281 250.93449219 73.75863281 250.93449219 72.4921875 251.6328125 C70.64591645 252.67955876 68.81763215 253.75860851 67.0078125 254.8671875 C37.37385252 272.93667529 0.71043813 276.6448589 -32.74951172 268.58544922 C-44.67944213 265.54662894 -55.54525964 261.24814509 -66.25 255.1875 C-67.12543457 254.69612549 -67.12543457 254.69612549 -68.01855469 254.19482422 C-76.09618291 249.60224636 -83.20503471 244.21946374 -90.25 238.1875 C-91.478065 237.20695198 -92.70700459 236.22749635 -93.9375 235.25 C-94.700625 234.569375 -95.46375 233.88875 -96.25 233.1875 C-96.25 232.5275 -96.25 231.8675 -96.25 231.1875 C-96.91 231.1875 -97.57 231.1875 -98.25 231.1875 C-122.86578392 205.66984469 -134.92018429 169.97331943 -134.67358398 134.89550781 C-134.11068365 118.7679362 -131.3567278 102.14727732 -125.25 87.1875 C-125.00411133 86.55763184 -124.75822266 85.92776367 -124.50488281 85.27880859 C-111.44327594 51.95286434 -85.99790567 25.71404516 -53.73828125 10.53515625 C-36.3578183 3.15080821 -18.79867392 0.00960096 0 0 Z " fill="#000000" transform="translate(894.25,165.8125)"/>
<path d="M0 0 C1.34384766 0.42732422 1.34384766 0.42732422 2.71484375 0.86328125 C36.72168744 12.19889581 61.79106638 37.62863211 77.703125 69.1484375 C83.09081949 80.23788749 86.66647325 91.90550162 89 104 C89.25160889 105.08825073 89.25160889 105.08825073 89.50830078 106.19848633 C91.40112318 115.0781746 91.39436971 123.90045253 91.375 132.9375 C91.37567978 134.16697861 91.37567978 134.16697861 91.37637329 135.42129517 C91.35587612 148.03568648 90.44901416 159.80754403 87 172 C86.78472656 172.90492188 86.56945312 173.80984375 86.34765625 174.7421875 C81.49841385 193.56865798 71.7183558 211.71472975 58.2265625 225.66796875 C55.96068973 227.96492713 55.96068973 227.96492713 54.015625 230.53515625 C43.83423607 242.98565317 27.37439063 251.33741748 13 258 C11.81277344 258.56654297 11.81277344 258.56654297 10.6015625 259.14453125 C-19.55350499 272.42334167 -60.63452077 273.23332895 -92 264 C-94.3627974 263.07175817 -96.69747517 262.06902939 -99 261 C-101.08129769 260.22368709 -103.16488815 259.4535094 -105.25 258.6875 C-135.93739243 246.86043199 -159.79422835 221.93328279 -173.25 192.25 C-188.83162561 156.26229618 -190.79940531 114.96683037 -176.62719727 78.11816406 C-163.23427734 45.19984097 -139.61938402 19.48265001 -107 5 C-103.37467162 3.52397345 -99.7158875 2.22835009 -96 1 C-94.52466797 0.49146484 -94.52466797 0.49146484 -93.01953125 -0.02734375 C-63.95325451 -9.59574541 -28.91271972 -10.26696578 0 0 Z " fill="#000000" transform="translate(639,170)"/>
<path d="M0 0 C6.08703921 5.20323597 12.35899389 11.9575095 14 20 C14.09647082 21.46153486 14.14571517 22.9266345 14.15821838 24.39129639 C14.1680072 25.26345291 14.17779602 26.13560944 14.18788147 27.03419495 C14.19363693 27.98293991 14.1993924 28.93168488 14.20532227 29.90917969 C14.21522186 30.91438156 14.22512146 31.91958344 14.23532104 32.95524597 C14.26690572 36.2774317 14.29168159 39.59963172 14.31640625 42.921875 C14.33697839 45.2254473 14.35797493 47.52901585 14.37937927 49.83258057 C14.43457308 55.89553793 14.48399429 61.9585292 14.53222656 68.02154541 C14.58246118 74.20840473 14.63813703 80.3952148 14.69335938 86.58203125 C14.80090806 98.72131209 14.9023604 110.8606357 15 123 C16.22106445 122.58717773 17.44212891 122.17435547 18.70019531 121.74902344 C20.32613101 121.20235241 21.95210987 120.65580974 23.578125 120.109375 C24.38008301 119.83786621 25.18204102 119.56635742 26.00830078 119.28662109 C42.27192335 113.83225634 58.74852745 111.55698818 75.875 111.5625 C76.94450394 111.56089874 76.94450394 111.56089874 78.03561401 111.55926514 C110.92434384 111.62975832 141.98078797 122.61483409 165.875 145.5 C183.72092017 164.15857591 190.2785526 187.03519757 193 212 C193.09909668 212.90153809 193.19819336 213.80307617 193.30029297 214.73193359 C197.53567255 254.93589927 197.4097354 296.54857149 195.125 336.875 C195.08579437 337.59348114 195.04658875 338.31196228 195.00619507 339.05221558 C194.20697707 353.19884651 192.6490735 367.07405362 181.875 377.4375 C172.08558592 385.2267514 162.10614753 387.25987828 149.90478516 386.23046875 C139.64156814 384.98867474 132.23596933 378.25872142 125.93823242 370.44042969 C123.47570379 366.06935607 123.1103665 362.47909797 122.76171875 357.5390625 C122.64880745 356.16326523 122.64880745 356.16326523 122.53361511 354.75967407 C121.82167343 345.25654411 121.73141517 335.75878375 121.79418945 326.23339844 C121.81253812 323.36904981 121.81469719 320.50502668 121.81445312 317.640625 C121.83126722 308.97281846 121.97611638 300.34041371 122.49609375 291.6875 C123.1277274 281.1050224 123.22139095 270.5300933 123.24023438 259.93066406 C123.24996805 256.63581343 123.28114051 253.34158134 123.3125 250.046875 C123.63245725 217.75592061 123.63245725 217.75592061 109 190 C97.50673083 179.12659254 83.56608776 177.79806327 68.5 177.6875 C67.21351563 177.65849609 65.92703125 177.62949219 64.6015625 177.59960938 C49.0168762 177.49769744 35.8051166 181.71751786 24 192 C19.13066897 198.19644329 16.04021474 204.19838945 15 212 C14.83177734 212.7933374 14.66355469 213.5866748 14.49023438 214.40405273 C13.79432134 219.50868572 13.85763548 224.55710753 13.8671875 229.703125 C13.86575241 231.42906891 13.86575241 231.42906891 13.86428833 233.18988037 C13.86360807 235.63423721 13.86545162 238.07859586 13.86962891 240.52294922 C13.87488138 244.16768764 13.86973035 247.81229717 13.86328125 251.45703125 C13.85982122 264.17436588 14.08702134 276.85216147 14.63027954 289.55780029 C15.0507783 299.5809494 15.21974088 309.59440842 15.24023438 319.62597656 C15.24679359 321.55635238 15.26057078 323.486716 15.28125 325.41699219 C15.65510973 360.33782797 15.65510973 360.33782797 7 372 C6.319375 373.03125 5.63875 374.0625 4.9375 375.125 C0.53334719 380.16436716 -7.33586053 385.00098823 -14 386 C-23.65425242 386.61217193 -32.33878894 386.87193122 -41 382 C-42.5778125 381.13375 -42.5778125 381.13375 -44.1875 380.25 C-52.34584637 373.7233229 -57.90348967 365.48790371 -59.4449234 354.96168518 C-59.60207619 351.77101324 -59.60849508 348.61782081 -59.55175781 345.42382812 C-59.55044357 343.63060875 -59.55044357 343.63060875 -59.54910278 341.80116272 C-59.54204575 338.55376843 -59.5129472 335.30750014 -59.47403812 332.06036186 C-59.43858935 328.62091725 -59.43313269 325.18141909 -59.42449951 321.74182129 C-59.40386515 315.21278621 -59.35865391 308.68418017 -59.30355334 302.15535402 C-59.22442256 292.67109269 -59.17868998 283.18666294 -59.13712692 273.70217133 C-59.13401607 272.99504202 -59.13090521 272.28791272 -59.12770009 271.55935526 C-59.12148507 270.14411019 -59.11533898 268.72886481 -59.10926318 267.31361914 C-59.08811048 262.61819186 -59.05379167 257.92298216 -59.01495361 253.22766113 C-58.92516539 240.72220841 -58.99590471 228.24337933 -59.43261719 215.74414062 C-59.4721413 214.60832298 -59.51166542 213.47250534 -59.55238724 212.30226898 C-59.77926306 206.54702738 -60.1456128 200.84199267 -60.78269577 195.11704731 C-61.11208416 191.90804024 -61.20024347 188.7041409 -61.28125 185.48046875 C-61.29965942 184.81517654 -61.31806885 184.14988434 -61.33703613 183.46443176 C-61.39477034 181.372195 -61.44795182 179.27988536 -61.5 177.1875 C-61.5521819 175.10583214 -61.60560822 173.02423542 -61.66296387 170.94270325 C-61.71520142 169.04676313 -61.7630347 167.1507031 -61.81054688 165.25463867 C-61.92857866 161.85707094 -62.20972198 158.48632636 -62.50268555 155.09960938 C-63.15095692 146.89833303 -63.20115613 138.70927918 -63.23828125 130.48828125 C-63.24310453 129.66455458 -63.24792782 128.8408279 -63.25289726 127.99213982 C-63.28889844 121.76559883 -63.30479167 115.53913465 -63.3125 109.3125 C-63.31394516 108.40254776 -63.31539032 107.49259552 -63.31687927 106.55506897 C-63.37319492 62.77847321 -63.37319492 62.77847321 -61.25 41.75 C-61.13224716 40.54000839 -61.13224716 40.54000839 -61.01211548 39.30557251 C-59.63795131 25.76685009 -57.37094627 10.04701963 -47.08203125 0.15625 C-32.97261365 -10.9784548 -13.92836013 -11.09157485 0 0 Z " fill="#010101" transform="translate(1777,52)"/>
<path d="M0 0 C1.17780029 0.0311792 1.17780029 0.0311792 2.37939453 0.06298828 C16.65664223 0.4756255 30.34017564 2.77073765 41.1015625 12.8515625 C48.17435592 20.85575258 50.21125475 29.4617598 49.58203125 39.86328125 C48.74573319 47.50616525 45.29738932 54.18979122 39.75 59.5 C29.56117543 67.10795491 17.87115253 67.18047029 5.6875 67.125 C4.64368164 67.12306641 3.59986328 67.12113281 2.52441406 67.11914062 C-4.24583941 67.08213347 -10.99029694 66.8714194 -17.75 66.5 C-18.57564453 66.45464111 -19.40128906 66.40928223 -20.25195312 66.36254883 C-21.04408203 66.3189624 -21.83621094 66.27537598 -22.65234375 66.23046875 C-45.71377056 64.92071002 -45.71377056 64.92071002 -65.8359375 74.63671875 C-73.6873875 83.15841448 -74.18016418 92.92643404 -74.1875 103.9375 C-74.19974609 104.90107422 -74.21199219 105.86464844 -74.22460938 106.85742188 C-74.23577486 112.30245634 -73.87689098 116.87169194 -72 122 C-70.93623884 123.29128895 -70.93623884 123.29128895 -68.46160889 123.08660889 C-66.76503143 123.06065643 -66.76503143 123.06065643 -65.03417969 123.03417969 C-63.75484558 123.0179657 -62.47551147 123.00175171 -61.15740967 122.98504639 C-60.46813133 122.97443932 -59.778853 122.96383224 -59.06868744 122.95290375 C-56.16326023 122.91091043 -53.25778026 122.88736202 -50.35216141 122.86287308 C-44.94249942 122.81722473 -39.53319005 122.76508987 -34.12402344 122.67773438 C-30.36215969 122.61770047 -26.60076517 122.58319312 -22.83847809 122.56455231 C-21.41449851 122.55293406 -19.99055866 122.53232311 -18.56685638 122.50191498 C-7.04242839 122.26240959 3.64598167 123.71470135 12.5 131.6875 C19.92026261 139.95489619 22.37065276 148.67709887 22.28515625 159.53515625 C21.65709883 167.16648408 19.00104928 173.25871123 14 179 C4.53142438 186.91576599 -3.93148894 188.12826811 -15.9140625 187.89453125 C-17.50255784 187.89443238 -19.09105785 187.89830676 -20.67953491 187.90592957 C-24.81843163 187.91726533 -28.95562687 187.88398388 -33.09423828 187.8380127 C-39.75082898 187.77090738 -46.40760353 187.76893346 -53.06446457 187.77469444 C-55.38205708 187.76960158 -57.6986326 187.74274789 -60.01602173 187.71284485 C-61.42946124 187.70620866 -62.84290331 187.70009172 -64.25634766 187.69458008 C-65.48954742 187.6815535 -66.72274719 187.66852692 -67.99331665 187.65510559 C-70.90206441 187.76608998 -70.90206441 187.76608998 -72.66552067 189.06341553 C-74.67800063 191.98390846 -74.40170093 194.90890016 -74.35835266 198.33024597 C-74.36076609 199.08262191 -74.36317953 199.83499784 -74.36566609 200.61017305 C-74.3702799 203.13900919 -74.35357456 205.66726433 -74.3371582 208.19604492 C-74.33635212 210.00614411 -74.33694534 211.81624439 -74.33883667 213.62634277 C-74.34039995 217.52892624 -74.33299228 221.43135554 -74.31899452 225.3339138 C-74.29789191 231.50711523 -74.30261388 237.68012732 -74.3120575 243.85334778 C-74.33495086 261.40919648 -74.32303779 278.96493335 -74.28491211 296.52075195 C-74.26409162 306.21331638 -74.26479069 315.90564619 -74.28844708 325.59820634 C-74.30211947 331.73213978 -74.28895565 337.86524306 -74.25584948 343.99909341 C-74.24148424 347.82144513 -74.25216532 351.64342641 -74.26983261 355.46575165 C-74.27300431 357.23460679 -74.26595376 359.00351525 -74.24776649 360.77227974 C-74.09143499 376.93659158 -74.09143499 376.93659158 -79.50891399 382.66519642 C-80.24700157 383.32592419 -80.24700157 383.32592419 -81 384 C-81.68964844 384.71671875 -82.37929687 385.4334375 -83.08984375 386.171875 C-91.52502453 393.37655373 -98.40318491 396.41120166 -109.6171875 396.2734375 C-120.87863433 395.36315889 -132.10362029 391.23431452 -139.9765625 382.91015625 C-144.51264871 377.1379328 -145.15002586 372.7355215 -145.12025452 365.45770264 C-145.12110894 364.6947442 -145.12196337 363.93178576 -145.12284368 363.14570737 C-145.12449157 360.5876743 -145.1189884 358.02970672 -145.11352539 355.47167969 C-145.11324334 353.63860068 -145.11340159 351.80552157 -145.1139679 349.97244263 C-145.11425519 344.99348957 -145.10836943 340.01456053 -145.10139394 335.03561306 C-145.0951491 329.83325255 -145.0945557 324.63089151 -145.09336853 319.42852783 C-145.09025856 309.57593362 -145.08204965 299.72335049 -145.07201904 289.87076116 C-145.06084756 278.65443831 -145.05534484 267.43811495 -145.05032361 256.22178793 C-145.03986678 233.14785248 -145.02227377 210.07392686 -145 187 C-145.61480225 187.16167664 -146.22960449 187.32335327 -146.86303711 187.4899292 C-159.7187252 190.55844815 -175.83732493 188.5981556 -187.3125 182.3125 C-193.73672907 178.12952126 -199.22621966 172.71540158 -201.5625 165.25390625 C-203.60198286 154.74692759 -201.23622985 146.01014115 -196.25 136.75 C-190.41263681 129.615445 -185.10821445 125.82540973 -176 124 C-171.33384285 123.55942603 -166.68479124 123.44575197 -162 123.375 C-159.58324903 123.32417453 -157.16657143 123.26968288 -154.75 123.2109375 C-153.16445312 123.18459229 -153.16445312 123.18459229 -151.546875 123.15771484 C-149.00842747 123.16716257 -149.00842747 123.16716257 -147 122 C-146.99589111 121.04037354 -146.99178223 120.08074707 -146.98754883 119.09204102 C-146.77113888 85.37447072 -144.81061386 51.32476604 -120.50390625 25.4140625 C-100.15843049 5.79861162 -75.16148755 3.10049706 -48.3125 1.375 C-47.31199615 1.3092981 -46.31149231 1.24359619 -45.28067017 1.17590332 C-30.16789463 0.19267818 -15.14757282 -0.51270575 0 0 Z " fill="#000000" transform="translate(248,42)"/>
<path d="M0 0 C3.68396934 0.00008114 7.36781399 -0.00685661 11.05175781 -0.02050781 C46.0284976 -0.14735234 46.0284976 -0.14735234 63.40917969 0.88452148 C64.49997833 0.93711624 65.59077698 0.989711 66.71463013 1.04389954 C74.8499956 1.63218757 81.64821257 3.93450704 87.88964844 9.31811523 C88.41429687 9.97553711 88.93894531 10.63295898 89.47949219 11.31030273 C90.02734375 11.97288086 90.57519531 12.63545898 91.13964844 13.31811523 C94.36550994 18.03359474 94.17745666 23.71580823 93.41699219 29.18530273 C90.24996537 36.55995089 84.99060006 41.20116403 77.76074219 44.33764648 C66.60178613 48.46352366 54.93058909 48.34413869 43.15112305 48.2512207 C41.42619125 48.24421143 41.42619125 48.24421143 39.66641235 48.23706055 C37.19263158 48.22663733 34.71885929 48.21400218 32.24510002 48.19933701 C28.31099636 48.17708964 24.37691058 48.16286514 20.44276428 48.15164185 C9.26459091 48.11850337 -1.91350516 48.076951 -13.09155273 48.01391602 C-19.28667969 47.97906756 -25.48174989 47.95547291 -31.6769647 47.94370759 C-34.93711746 47.9370297 -38.19697444 47.92314602 -41.45704842 47.89867783 C-78.41879554 47.62614052 -113.2167306 53.79252879 -141.58300781 79.18530273 C-142.20304687 79.73444336 -142.82308594 80.28358398 -143.46191406 80.84936523 C-163.67921563 99.8939695 -177.77638103 129.91060759 -178.91894531 157.62280273 C-179.3791881 186.02129989 -171.51541825 214.41303073 -152.58300781 236.18530273 C-151.90753906 236.9806543 -151.23207031 237.77600586 -150.53613281 238.59545898 C-130.85372608 261.17439012 -102.94794471 278.40045217 -72.58300781 281.18530273 C-67.91996365 281.41279041 -63.25446124 281.59242873 -58.58642578 281.66870117 C-49.49113973 281.91886621 -42.18632902 283.58198153 -35.58300781 290.18530273 C-29.53083862 296.62122164 -29.92164623 302.43393404 -30.09472656 310.99389648 C-30.10406606 312.32909311 -30.1111768 313.66430701 -30.11616516 314.99952698 C-30.13514654 318.49340119 -30.18416664 321.98621616 -30.23968506 325.47967529 C-30.29107178 329.05262935 -30.31372029 332.62575659 -30.33886719 336.19897461 C-30.39229722 343.19484914 -30.47749943 350.19002492 -30.58300781 357.18530273 C-29.16076831 356.08663365 -27.73958962 354.98659127 -26.31884766 353.88598633 C-25.52731293 353.27355072 -24.7357782 352.66111511 -23.92025757 352.03012085 C-20.58561654 349.39805033 -17.39424409 346.61857657 -14.20800781 343.81030273 C-8.90615705 339.17301269 -3.53382977 334.6609683 1.94042969 330.22827148 C5.07599752 327.64167531 8.08785311 324.9316757 11.10839844 322.21264648 C13.63940809 319.98998318 16.23612185 317.86673638 18.85449219 315.74780273 C22.46830751 312.81754636 25.97816296 309.81894268 29.41699219 306.68530273 C33.61294059 302.86481597 37.95100608 299.27261232 42.36230469 295.70483398 C45.95742186 292.73955191 49.46851809 289.68672597 52.97949219 286.62280273 C55.4556516 284.47347769 57.93558141 282.32856116 60.41699219 280.18530273 C61.86912109 278.9284668 61.86912109 278.9284668 63.35058594 277.64624023 C67.86649779 273.86579652 71.43042161 271.05607664 77.41699219 270.18530273 C78.10277344 270.08217773 78.78855469 269.97905273 79.49511719 269.87280273 C86.30578148 269.30127846 91.24714529 271.88293862 96.41699219 276.18530273 C102.45060053 283.25708255 104.0370611 289.52929115 103.94433594 298.73999023 C102.20892615 310.07800085 89.8392888 319.35812803 81.59277344 326.52124023 C77.48869637 330.09150836 73.54454968 333.81115174 69.60449219 337.56030273 C64.31569227 342.55545002 58.95364226 347.34125094 53.26074219 351.87670898 C49.71868073 354.75220118 46.28939314 357.74583665 42.85449219 360.74780273 C37.91596645 365.05457758 32.92597861 369.25881917 27.78027344 373.31811523 C23.83567751 376.43467201 19.95843416 379.63308749 16.07470703 382.82495117 C14.20804581 384.35676801 12.33783872 385.88420627 10.46777344 387.41186523 C0.97655568 395.17968915 -8.35697504 403.10483326 -17.58300781 411.18530273 C-18.37320312 411.87366211 -19.16339844 412.56202148 -19.97753906 413.27124023 C-20.63109375 413.84100586 -21.28464844 414.41077148 -21.95800781 414.99780273 C-22.85519531 415.77510742 -22.85519531 415.77510742 -23.77050781 416.56811523 C-25.10960643 417.76291444 -26.41784104 418.9925128 -27.70800781 420.23999023 C-36.51668382 428.58988103 -45.89956464 431.5577315 -57.93066406 431.39624023 C-62.95929515 430.99631965 -65.6301285 429.09280684 -69.20800781 425.68530273 C-75.21233927 417.97651589 -76.73904726 407.83897727 -76.71582031 398.39624023 C-76.71677704 397.53777496 -76.71773376 396.67930969 -76.71871948 395.79483032 C-76.71939944 393.97755866 -76.71755801 392.16028456 -76.71337891 390.34301758 C-76.70806739 387.59117005 -76.71330971 384.83948868 -76.71972656 382.08764648 C-76.71906498 380.31551071 -76.71778217 378.54337504 -76.71582031 376.77124023 C-76.71784454 375.96045013 -76.71986877 375.14966003 -76.72195435 374.31430054 C-76.70207041 369.34884358 -76.34390938 364.50577268 -75.80761719 359.57077026 C-75.48085332 356.10036932 -75.47117609 352.69590719 -75.48535156 349.20874023 C-75.48676651 348.51261627 -75.48818146 347.81649231 -75.48963928 347.09927368 C-75.49514707 344.91956914 -75.50768052 342.73997516 -75.52050781 340.56030273 C-75.52553479 339.06421049 -75.53009557 337.5681166 -75.53417969 336.07202148 C-75.54508596 332.44308054 -75.562284 328.81420246 -75.58300781 325.18530273 C-77.20142578 325.05575195 -77.20142578 325.05575195 -78.85253906 324.92358398 C-121.52992398 321.09195773 -161.3327486 299.39842731 -189.14941406 266.90795898 C-203.96427117 249.10590998 -216.05611907 227.8156715 -221.58300781 205.18530273 C-221.83566406 204.19788086 -222.08832031 203.21045898 -222.34863281 202.19311523 C-223.16188839 198.86833506 -223.89159909 195.53746973 -224.58300781 192.18530273 C-224.79183594 191.1862793 -225.00066406 190.18725586 -225.21582031 189.15795898 C-232.36069311 148.45231045 -220.93830585 105.7666824 -197.58300781 72.18530273 C-171.8073383 36.68932177 -134.91429514 12.0618201 -91.41552734 4.94970703 C-61.08116447 0.26231033 -30.61901971 -0.00355034 0 0 Z " fill="#010101" transform="translate(1527.5830078125,105.814697265625)"/>
<path d="M0 0 C8.36646279 5.96146913 11.84303638 13.49846435 14.3125 23.3125 C14.84345542 27.64933577 14.91708225 31.93084109 14.921875 36.296875 C14.93841125 37.47848206 14.95494751 38.66008911 14.97198486 39.87750244 C15.0200911 43.6058898 15.04175323 47.33387043 15.0625 51.0625 C15.09069082 53.60939505 15.12062254 56.15627147 15.15234375 58.703125 C15.22583987 64.90617705 15.2777003 71.10911648 15.3125 77.3125 C21.61866779 78.57374258 27.64464074 79.55659027 34.078125 79.62109375 C35.47786858 79.64626282 36.87760807 79.6716607 38.27734375 79.69726562 C40.41356226 79.72577778 42.54970993 79.74988677 44.68603516 79.76879883 C73.61272313 80.07269269 73.61272313 80.07269269 84.3125 89.3125 C89.95758959 95.88861689 92.9057856 102.77186995 92.68359375 111.4765625 C91.32250624 121.87813656 85.74523444 132.72765357 77.79829407 139.62712097 C71.50749805 144.18328789 65.6155534 143.96246924 58.0625 143.80078125 C56.18171753 143.79016914 56.18171753 143.79016914 54.26293945 143.77934265 C50.95478586 143.75620033 47.64788569 143.71140739 44.34014893 143.65582275 C40.95478533 143.60436107 37.56923706 143.58177176 34.18359375 143.55664062 C27.55941147 143.50166848 20.93605809 143.41811253 14.3125 143.3125 C14.30291723 159.01227638 14.32773776 174.71160459 14.3927784 190.41122818 C14.42219282 197.70196212 14.44062768 204.99240629 14.43261719 212.28320312 C14.42565834 218.64279429 14.43990944 225.00193639 14.47893608 231.36141753 C14.49885287 234.72461349 14.50545297 238.08651215 14.49292374 241.44983673 C14.48069189 245.21757712 14.50594443 248.98340319 14.53955078 252.75097656 C14.52732986 253.84862335 14.51510895 254.94627014 14.5025177 256.07717896 C14.64130304 264.76491497 17.22278333 272.21514457 22.71499825 279.06055069 C29.07451209 284.9890955 38.25186543 285.75336908 46.5 286.3125 C72.35174021 288.50448043 72.35174021 288.50448043 81.3125 297.3125 C87.82346087 305.97870948 88.12590639 315.78469736 87.3125 326.3125 C85.40663849 334.69369822 80.8064883 341.42350752 73.578125 346.0703125 C53.40367946 356.88925091 26.3570226 354.04773736 5.10253906 347.64697266 C-17.53256128 340.40763432 -34.2287371 327.04509219 -45.6875 306.3125 C-49.55949216 298.69388274 -52.03178899 290.73985788 -53.9375 282.4375 C-54.08872314 281.77975586 -54.23994629 281.12201172 -54.39575195 280.44433594 C-57.31880599 266.50742557 -57.99974758 252.56373775 -57.875 238.375 C-57.86810835 236.73689935 -57.86160405 235.09879702 -57.85546875 233.46069336 C-57.80157544 223.42482936 -57.51620583 213.41483126 -57.0480957 203.3894043 C-56.61234708 193.32273792 -56.57300217 183.26182857 -56.5625 173.1875 C-56.56000244 172.35550079 -56.55750488 171.52350159 -56.55493164 170.66629028 C-56.54900534 168.27488089 -56.5505422 165.88359852 -56.5546875 163.4921875 C-56.55270355 162.78487991 -56.5507196 162.07757233 -56.54867554 161.34883118 C-56.33910668 153.01477442 -56.33910668 153.01477442 -58.91845703 145.33569336 C-61.35977331 143.92366513 -63.17780629 143.94355682 -65.9921875 143.94140625 C-67.0447876 143.92698486 -68.0973877 143.91256348 -69.18188477 143.89770508 C-70.29748779 143.8902124 -71.41309082 143.88271973 -72.5625 143.875 C-85.29639812 143.5662281 -97.14164301 142.78764694 -106.6875 133.3125 C-114.05893233 124.00121706 -113.87640909 112.66813675 -112.6875 101.3125 C-110.85097122 94.54177803 -107.3956266 90.23683704 -101.6875 86.3125 C-100.965625 85.77625 -100.24375 85.24 -99.5 84.6875 C-88.50180026 79.31060235 -75.49663626 78.25453341 -63.42114258 78.29174805 C-61.52976311 78.29624214 -61.52976311 78.29624214 -59.60017395 78.30082703 C-58.63899155 78.30467911 -57.67780914 78.30853119 -56.6875 78.3125 C-56.69416183 77.52402679 -56.70082367 76.73555359 -56.70768738 75.92318726 C-56.76789374 68.4787059 -56.81352261 61.03434324 -56.84293652 53.58968163 C-56.85856708 49.762644 -56.87975718 45.93580821 -56.91381836 42.10888672 C-56.94650562 38.4130417 -56.96437263 34.71739035 -56.97213173 31.0214119 C-56.97765851 29.61405007 -56.98845101 28.20669839 -57.00469017 26.7994194 C-57.02658635 24.82260294 -57.02772644 22.84559004 -57.02807617 20.86865234 C-57.03473801 19.74502289 -57.04139984 18.62139343 -57.04826355 17.4637146 C-56.33934787 11.27144425 -53.28709064 7.31214404 -48.6875 3.3125 C-34.20468997 -7.78910925 -15.83017266 -9.60276589 0 0 Z " fill="#010101" transform="translate(1166.6875,85.6875)"/>
<path d="M0 0 C7.64142828 6.27599273 11.88836046 13.50896534 13.5703125 23.26953125 C13.8100384 27.27865024 13.75679978 31.2706487 13.6953125 35.28515625 C13.68773926 36.41854431 13.68016602 37.55193237 13.67236328 38.71966553 C13.64804531 42.31977969 13.61077239 45.91956455 13.5703125 49.51953125 C13.51718178 54.27473066 13.47719539 59.02977233 13.4453125 63.78515625 C13.42871582 64.8768512 13.41211914 65.96854614 13.39501953 67.09332275 C13.38841309 68.1082782 13.38180664 69.12323364 13.375 70.16894531 C13.36452637 71.05970764 13.35405273 71.95046997 13.34326172 72.8682251 C13.58999163 75.47765925 14.16541419 77.06809751 15.5703125 79.26953125 C18.03992673 80.50433837 19.69749594 80.40727051 22.4597168 80.42724609 C23.98721809 80.44263931 23.98721809 80.44263931 25.545578 80.45834351 C26.65073257 80.46564484 27.75588715 80.47294617 28.89453125 80.48046875 C31.22591838 80.50854591 33.55729849 80.53721043 35.88867188 80.56640625 C39.57087953 80.60761675 43.25295747 80.64449644 46.93530273 80.67089844 C50.48448923 80.69856497 54.03307666 80.74444853 57.58203125 80.79296875 C59.22458138 80.79784805 59.22458138 80.79784805 60.90031433 80.80282593 C70.13806413 80.95081705 75.84992806 82.99664828 82.7109375 89.3125 C90.29511123 97.29500218 92.07384072 105.95249516 91.87890625 116.765625 C91.09295099 125.68969927 87.0769414 132.27590783 80.5703125 138.26953125 C73.13782055 144.08697965 66.83860544 145.14747998 57.5625 145.07421875 C55.75255051 145.09477829 55.75255051 145.09477829 53.90603638 145.11575317 C50.08540981 145.15288031 46.26609303 145.14934938 42.4453125 145.14453125 C39.84112567 145.16266986 37.23695597 145.18347618 34.6328125 145.20703125 C28.27851819 145.25872073 21.92479791 145.27711268 15.5703125 145.26953125 C10.32896459 154.40383396 12.42214038 167.90826681 12.4375 178.21484375 C12.43682396 179.83609023 12.43585145 181.45733662 12.43460083 183.07858276 C12.43313545 186.46222914 12.43523911 189.84584893 12.43994141 193.22949219 C12.44561034 197.51186836 12.44237026 201.79418144 12.43636894 206.07655525 C12.4327081 209.42282564 12.43392734 212.76908175 12.43649673 216.11535263 C12.43715229 217.69139489 12.4363871 219.26743855 12.43401718 220.84347916 C12.42422601 229.18830835 12.55412228 237.51185357 12.97314453 245.84716797 C13.00610563 246.56602236 13.03906673 247.28487675 13.07302666 248.0255146 C13.75091065 260.04884047 16.47155836 273.08545554 25.1953125 281.9140625 C33.42261774 288.52256926 44.72088235 287.61019827 54.6875 287.66015625 C64.10054115 287.87572208 72.62705434 290.66146486 79.5703125 297.26953125 C87.18974373 306.67355432 89.83554711 314.08332419 88.5703125 326.26953125 C86.06219638 334.79712605 80.25526266 341.41978916 72.73828125 345.9921875 C61.81341437 351.70004478 52.25279406 353.81048351 39.9453125 353.70703125 C38.7078125 353.7009082 37.4703125 353.69478516 36.1953125 353.68847656 C26.6946268 353.52664622 18.55870305 352.3185966 9.5703125 349.26953125 C8.03697266 348.83640625 8.03697266 348.83640625 6.47265625 348.39453125 C-6.38018354 344.60133479 -18.01051662 337.58845981 -28.4296875 329.26953125 C-29.19667969 328.66753906 -29.96367187 328.06554687 -30.75390625 327.4453125 C-43.92130272 316.48397198 -54.90730123 299.75516499 -57.23019218 282.53759575 C-57.68467465 277.3705795 -57.55816045 272.17301188 -57.54321289 266.99047852 C-57.54293048 265.64956159 -57.54308981 264.3086445 -57.5436554 262.96772766 C-57.54394125 259.34427711 -57.53807884 255.72085994 -57.53108144 252.09741712 C-57.52481255 248.30444335 -57.52424131 244.51146875 -57.52305603 240.7184906 C-57.51995312 233.5434414 -57.51175378 226.36840751 -57.50170654 219.19336504 C-57.49051307 211.02165535 -57.48502681 202.84994491 -57.48001111 194.67822945 C-57.46957027 177.8753211 -57.45199102 161.07242813 -57.4296875 144.26953125 C-58.84691353 144.51253716 -58.84691353 144.51253716 -60.29277039 144.76045227 C-74.08268857 146.99836842 -88.49109555 145.8825464 -100.4296875 138.26953125 C-106.55890722 133.24800184 -111.89170468 127.25575396 -113.4296875 119.26953125 C-114.24791677 109.98847354 -113.58995906 103.11494412 -108.4296875 95.26953125 C-107.8521875 94.36203125 -107.2746875 93.45453125 -106.6796875 92.51953125 C-97.93227959 83.77212334 -87.29452744 80.15097597 -75.125 80.1328125 C-74.23554688 80.13667969 -73.34609375 80.14054687 -72.4296875 80.14453125 C-71.54023438 80.14066406 -70.65078125 80.13679688 -69.734375 80.1328125 C-68.87070313 80.13410156 -68.00703125 80.13539063 -67.1171875 80.13671875 C-66.33730469 80.13784668 -65.55742187 80.13897461 -64.75390625 80.14013672 C-62.23718815 80.28024813 -59.88731636 80.72200199 -57.4296875 81.26953125 C-57.45998047 80.60872559 -57.49027344 79.94791992 -57.52148438 79.26708984 C-58.13223375 65.56046437 -58.54910918 51.86401421 -58.6171875 38.14453125 C-58.63007813 36.89591309 -58.64296875 35.64729492 -58.65625 34.36083984 C-58.66977388 21.90027368 -57.14570771 13.6364231 -48.4296875 4.26953125 C-44.9634408 1.46594936 -41.40117893 -0.71602729 -37.4296875 -2.73046875 C-36.72328125 -3.09011719 -36.016875 -3.44976562 -35.2890625 -3.8203125 C-24.0453023 -8.47660251 -9.78592414 -6.96971767 0 0 Z " fill="#010101" transform="translate(2420.4296875,84.73046875)"/>
<path d="M0 0 C8.05526559 7.16535053 12.27433643 16.46429441 13.18142164 27.13399398 C13.25177569 29.31427423 13.26215723 31.48587046 13.24723816 33.66722107 C13.25086297 34.90548966 13.25086297 34.90548966 13.25456101 36.16877377 C13.26016633 38.91525144 13.25156404 41.66149204 13.24291992 44.40795898 C13.24396275 46.3937915 13.24586992 48.37962372 13.24856949 50.36545467 C13.2533424 55.77421039 13.24560339 61.18288461 13.23556781 66.59163046 C13.22695701 72.34075987 13.22961979 78.08988556 13.23072815 83.83901978 C13.23086531 96.16423183 13.21600069 108.48939719 13.19804382 120.81459427 C13.18710634 128.41243556 13.17980453 136.01027763 13.17321777 143.60812378 C13.14586718 174.22040775 13.09440459 204.83258791 13.0220679 235.44479781 C13.00575841 242.37469505 12.99112037 249.30459341 12.97784424 256.23449707 C12.94416302 273.50048269 12.89342145 290.76603854 12.78945923 308.0317688 C12.76156559 312.6890628 12.74198685 317.34627049 12.72982788 322.00363159 C12.71521872 327.2954048 12.68183466 332.5866914 12.63187981 337.87824631 C12.61726325 339.72565071 12.60896194 341.57311981 12.60806465 343.42058182 C12.59483538 357.24838712 11.20894973 367.6312195 1.2265625 377.90625 C-6.85341248 385.50426156 -15.17999361 387.49534887 -26.04418945 387.42358398 C-32.05372713 387.21479661 -36.79281018 385.94655454 -42 383 C-42.64324219 382.63777344 -43.28648437 382.27554687 -43.94921875 381.90234375 C-49.82681589 378.14119156 -54.22698656 372.37466407 -57 366 C-57.26171303 363.86556435 -57.26171303 363.86556435 -57.2784729 361.51431274 C-57.28963859 360.61218489 -57.30080427 359.71005703 -57.31230831 358.78059196 C-57.3144663 357.79032572 -57.31662428 356.80005947 -57.31884766 355.77978516 C-57.32887345 354.72079073 -57.33889925 353.6617963 -57.34922886 352.57071114 C-57.38052449 348.97683393 -57.39731238 345.38303503 -57.4140625 341.7890625 C-57.43323673 339.17408732 -57.45314059 336.55911741 -57.47370911 333.94415283 C-57.53403358 325.93632753 -57.57444299 317.9284417 -57.61348867 309.92048931 C-57.63264425 306.10065054 -57.6542196 302.28082557 -57.67556763 298.46099854 C-57.77445522 280.56099385 -57.85196767 262.66095232 -57.91811931 244.76079869 C-57.97254772 230.08031041 -58.04178842 215.39993998 -58.11749935 200.71954703 C-58.23206277 178.44529944 -58.3206522 156.1711098 -58.37683868 133.89663506 C-58.40674525 122.21802387 -58.44620274 110.5396232 -58.51031494 98.86114502 C-58.56534773 88.80107145 -58.59908359 78.74119517 -58.60620445 68.68096924 C-58.61049509 63.48539164 -58.62462707 58.29032156 -58.66477394 53.09488678 C-58.70159837 48.29037094 -58.71011593 43.48663475 -58.69690013 38.68200374 C-58.69697949 36.9405458 -58.70716378 35.19905146 -58.72870183 33.45772672 C-58.86927627 21.45893114 -57.35370688 12.72937297 -49.61328125 3 C-34.98500744 -9.71591883 -16.24976885 -10.4708951 0 0 Z " fill="#010101" transform="translate(399,51)"/>
<path d="M0 0 C14.46203667 12.49655853 23.44924486 30.2080765 25.5625 49.1875 C26.80210038 71.12356553 22.94823299 91.22747741 8.5703125 108.59375 C-4.63652026 122.71973962 -22.76486902 129.4547694 -41.75390625 130.4765625 C-62.59295629 131.12041273 -80.20027376 124.60411238 -95.625 110.5625 C-109.68423636 95.8970132 -114.92778658 75.0415218 -114.72265625 55.30688477 C-114.57756793 49.39850303 -114.1006705 43.88029503 -112.4375 38.1875 C-112.18097656 37.17816406 -111.92445313 36.16882813 -111.66015625 35.12890625 C-108.14812143 22.33183516 -101.74375572 12.54123661 -92.4375 3.1875 C-91.42429687 2.12208984 -91.42429687 2.12208984 -90.390625 1.03515625 C-66.34116704 -22.51703848 -25.34839049 -19.12937543 0 0 Z " fill="#FDFDFD" transform="translate(2194.4375,243.8125)"/>
<path d="M0 0 C0.87398437 0.25652344 1.74796875 0.51304687 2.6484375 0.77734375 C20.76490885 6.68930149 33.20854847 19.29880654 41.75 35.9375 C51.1440499 55.31536077 51.63638692 77.69910807 45 98 C44.71125 98.91910156 44.4225 99.83820313 44.125 100.78515625 C38.14078897 117.64246499 25.75798777 129.3879447 10 137 C-0.14391283 141.08590668 -9.33342009 142.18109641 -20.1875 142.1875 C-21.26064453 142.19974609 -22.33378906 142.21199219 -23.43945312 142.22460938 C-33.695101 142.24322217 -42.91744578 141.20998084 -52.0625 136.375 C-52.74441406 136.02236084 -53.42632813 135.66972168 -54.12890625 135.30639648 C-59.99440877 132.17993367 -65.1480677 128.56239565 -70 124 C-70.68191406 123.3709375 -71.36382813 122.741875 -72.06640625 122.09375 C-85.70434585 108.21561185 -91.2826816 89.32113697 -91.4375 70.3125 C-91.170441 49.28681205 -84.15715769 31.57233395 -69.6875 16.25 C-52.11109243 -0.63180727 -23.43669886 -7.24632915 0 0 Z " fill="#FDFDFD" transform="translate(613,231)"/>
<path d="M0 0 C0.96808594 0.3403125 1.93617188 0.680625 2.93359375 1.03125 C10.53411681 3.89717972 16.73409078 7.85976287 23 13 C23.63550781 13.52078125 24.27101563 14.0415625 24.92578125 14.578125 C34.21454209 23.03410038 40.32878581 35.17544666 44 47 C44.36351562 48.16917969 44.72703125 49.33835937 45.1015625 50.54296875 C49.68588225 69.58587567 46.67272756 91.73816983 36.64453125 108.51953125 C26.33566225 124.06853794 12.19725264 133.7654192 -6 138 C-25.85361182 141.56029901 -46.8209443 139.76870989 -63.6875 128.1484375 C-81.09624309 114.826503 -89.50370681 97.30331419 -92.74511719 75.98828125 C-95.0548783 57.97037462 -90.34059283 38.85063528 -80 24 C-77.17893675 20.46992616 -74.19139693 17.19713686 -71 14 C-70.44828125 13.43667969 -69.8965625 12.87335938 -69.328125 12.29296875 C-52.55460555 -3.44258539 -21.34380406 -8.38869003 0 0 Z " fill="#FDFDFD" transform="translate(922,234)"/>
<path d="M0 0 C6.63314569 4.59645834 11.36613435 10.31135388 14 18 C15.08232479 28.06421491 13.39589672 37.0051291 7 45 C0.68023587 51.58377517 -6.1392644 55.14277495 -15.3125 55.625 C-23.43400964 55.34003475 -30.14434389 52.45159978 -36.19921875 47.03125 C-42.99035996 39.62790948 -45.52325094 31.99766058 -45.40234375 22.04296875 C-44.30330553 13.73082533 -39.69536079 6.49188459 -33.125 1.40234375 C-22.34723634 -5.71018778 -11.53991998 -5.96229199 0 0 Z " fill="#40CDF7" transform="translate(1615,250)"/>
<path d="M0 0 C6.47203826 3.49490066 12.97279766 9.77118613 15.5625 16.828125 C17.62090514 27.04663621 16.2785998 35.55230504 10.59765625 44.11328125 C5.35468868 50.92016579 -1.79108189 55.07118087 -10.2421875 56.578125 C-19.34107108 57.05816202 -26.97860812 54.24342976 -33.94140625 48.359375 C-39.88355529 41.98534044 -43.42358453 33.05320077 -43.27734375 24.34375 C-42.35014961 16.50830653 -39.0512035 9.13009007 -33 4 C-22.285518 -3.3714299 -12.20221087 -5.53774206 0 0 Z " fill="#3FCDF7" transform="translate(1437,249)"/>
<path d="M0 0 C7.64807933 4.30707625 12.26094539 10.72303147 15 19 C16.13887715 29.48965798 15.07277679 37.62209131 8.390625 46.0234375 C3.36859411 51.48316833 -3.29746573 55.53832062 -10.78515625 56.2734375 C-18.84794404 56.52329743 -24.21736994 55.37301149 -31 51 C-31.9075 50.443125 -32.815 49.88625 -33.75 49.3125 C-41.12902345 41.72850368 -43.31590774 34.10344461 -43.3894043 23.79150391 C-43.23206618 16.20062992 -40.43802261 11.82297355 -35.625 6.25 C-24.67065126 -3.13944178 -13.78292265 -6.06723339 0 0 Z " fill="#3FCDF7" transform="translate(1525,249)"/>
</svg>
